# xmcd
#
# Track frame offsets:
#	150
#	16000
#	29195
#	49000
#	62087
#	74760
#	86272
#	97025
#	114985
#	125400
#	138652
#	152315
#	166337
#	181032
#	195582
#	209167
#	222300
#	234100
#
# Disc length: 3300 seconds
#
# Revision: 0
# Processed by: cddbd v1.4PL0 Copyright (c) Steve Scherf et al.
# Submitted via: dBpowerAMP V4.0
#
DISCID=f90ce212
DTITLE=Various Artist - Cowboy Classics
DYEAR=1900
DGENRE=Country
TTITLE0=Eddy Arnold - Track01
TTITLE1=Jonny Cash - Track02
TTITLE2=Marty Robbins - Track03
TTITLE3=Tennessee Ernie Ford - Track04
TTITLE4=Walter Brennan - Track05
TTITLE5=Tennessee Ernie Ford - Track06
TTITLE6=Sons Of The Pioneers - Track07
TTITLE7=Jonny Cash - Track08
TTITLE8=Tex Ritter - Track09
TTITLE9=Roy Rogers - Track10
TTITLE10=Gene Autry - Track11
TTITLE11=Sons Of The Pioneers - Track12
TTITLE12=Riders In The Sky - Track13
TTITLE13=Rex Allen - Track14
TTITLE14=Rex Allen - Track15
TTITLE15=Sons Of The Pioneers - Track16
TTITLE16=Gene Autry - Track17
TTITLE17=Tex Ritter - Track18
EXTD=
EXTT0=
EXTT1=
EXTT2=
EXTT3=
EXTT4=
EXTT5=
EXTT6=
EXTT7=
EXTT8=
EXTT9=
EXTT10=
EXTT11=
EXTT12=
EXTT13=
EXTT14=
EXTT15=
EXTT16=
EXTT17=
PLAYORDER=
